<svg width="1920" height="971" viewBox="0 0 1920 971" fill="none" xmlns="http://www.w3.org/2000/svg">
<path opacity="0.4" d="M1846.56 906.819L1835.42 832.531H1805.66V752.056H1809.34V744.774H1794.89V713.43H1793.13V744.774H1783.15V719.09H1781.38V744.774H1721.19V752.056H1725.3V906.819H1656.58V842.2H1617.44V662.469H1621.02V653.645H1613.2V642.365H1604.21V638.117V625.215V614.014H1593.36V594H1592.05H1590.74V614.014H1584.89L1581.35 625.215H1557.67V642.365H1495.67V653.645H1487.86V662.469H1491.44V779.411H1439.56V894.315L1382.01 868.909V757.378H1391.29V749.181H1374.96V726.948H1305.01V749.181H1282.16V726.948H1270.41V749.181H1258.67V726.948H1245.74V749.181H1218.72V757.378H1222.84V906.819H1197.57V626.827H1199.98V623.285H1204.12V613.616H1126.85V602.873H1129.36V599.77H1087.29V602.873H1089.81V613.616H1070.66V623.285H1074.79V626.827H1077.45V906.819H1056.56V810.766H950.441V906.819H933.21V596.726H920.461V604.843L896.94 610.573V605.3H884.192V613.686L860.671 619.416V613.368H847.922V622.519L824.402 628.259V623.266H811.653V631.363L788.132 637.093V632.795H775.384V906.819H757.444V777.322H691.025V878.817H622.929V792.273H614.543V763.843H619.514V760.989H597.481V752.056H595.135V760.989H588.087V715.121H586.32V760.989H577.145V763.843H582.546V792.273H537.601V858.285H493.844L480.656 906.819H425.149V667.86H364.451V658.022H367.895V654.57H321.922V658.022H325.536V667.86V683.677V871.674H296.914V800.639H307.087V794.213H235.067V751.3H221.32V742.476H190.661V751.3H165.703V904.521H83.8398V790.881H14.9051V880.637H0V971H14.9051H35.0115H45.7735H83.8398H165.703H190.661H221.32H235.067H288.787H296.914H325.536H373.535H397.186H425.149H537.601H563.568H607.404H622.929H692.183H710.792H775.384H781.753H788.132H811.653H824.402H847.922H858.575H860.671H884.192H896.94H917.157H920.461H926.831H933.21H950.441H1038.15H1050.68H1056.56H1082.93H1129.36H1171.87H1191.85H1222.84H1299.79H1381.16H1382.01H1439.56H1471.75H1491.44H1503.88H1600.18H1617.44H1638.06H1656.58H1725.3H1776.4H1786.86H1805.66H1920V929.519V906.819H1846.56Z" fill="#E5E7EB"/>
<path d="M1698.9 302.186C1700.59 298.391 1701.08 294.173 1700.3 290.095C1699.52 286.018 1697.51 282.275 1694.54 279.367C1691.58 276.459 1687.79 274.525 1683.69 273.822C1679.6 273.119 1675.38 273.682 1671.61 275.436C1670.52 273.807 1669.05 272.473 1667.32 271.55C1665.59 270.627 1663.66 270.145 1661.7 270.146C1659.92 270.159 1658.18 270.573 1656.59 271.356C1656.65 270.965 1656.69 270.571 1656.71 270.176C1656.7 267.882 1655.85 265.671 1654.32 263.962C1652.79 262.253 1650.68 261.165 1648.4 260.906C1649.33 259.185 1649.81 257.26 1649.81 255.306C1649.81 253.108 1649.2 250.954 1648.04 249.083C1646.88 247.213 1645.23 245.7 1643.27 244.712C1641.3 243.725 1639.1 243.303 1636.9 243.492C1634.71 243.682 1632.61 244.476 1630.85 245.786C1629.76 241.825 1627.58 238.249 1624.56 235.465C1621.53 232.681 1617.79 230.802 1613.74 230.042C1609.7 229.282 1605.53 229.672 1601.7 231.167C1597.87 232.661 1594.53 235.201 1592.08 238.496C1591 234.866 1588.76 231.688 1585.7 229.45C1582.64 227.211 1578.93 226.033 1575.14 226.096C1571.35 226.16 1567.68 227.461 1564.7 229.801C1561.72 232.141 1559.58 235.391 1558.62 239.056C1556.94 237.923 1554.96 237.317 1552.93 237.316C1551.32 237.327 1549.74 237.722 1548.32 238.466C1548.29 236.387 1547.53 234.386 1546.17 232.807C1544.82 231.227 1542.96 230.169 1540.91 229.816C1539.86 226.871 1537.8 224.391 1535.09 222.813C1532.39 221.236 1529.22 220.662 1526.13 221.193C1523.05 221.724 1520.25 223.325 1518.23 225.715C1516.21 228.105 1515.1 231.129 1515.1 234.256C1515.1 234.256 1515.1 234.256 1515.1 234.336C1514.84 234.336 1514.59 234.256 1514.33 234.256C1511.54 234.256 1508.88 235.359 1506.91 237.322C1504.94 239.286 1503.84 241.949 1503.84 244.726C1503.85 245.709 1504.01 246.686 1504.3 247.626C1503.97 247.571 1503.63 247.537 1503.3 247.526C1501.75 247.52 1500.23 247.957 1498.92 248.784C1497.61 249.612 1496.56 250.796 1495.9 252.197C1495.24 253.598 1495 255.159 1495.19 256.694C1495.39 258.23 1496.02 259.677 1497.02 260.866C1496.81 260.866 1496.61 260.796 1496.4 260.796C1494.7 260.796 1493.08 261.468 1491.88 262.664C1490.68 263.861 1490.01 265.483 1490.01 267.176C1490.01 267.578 1490.05 267.98 1490.13 268.376C1487.96 266.48 1485.37 265.124 1482.57 264.42C1479.78 263.715 1476.86 263.681 1474.05 264.321C1471.23 264.961 1468.62 266.256 1466.4 268.101C1464.19 269.946 1462.45 272.288 1461.31 274.936C1459.33 273.945 1457.12 273.478 1454.9 273.578C1452.69 273.679 1450.53 274.344 1448.64 275.51C1446.75 276.677 1445.2 278.306 1444.12 280.242C1443.04 282.179 1442.47 284.359 1442.47 286.576C1439.22 286.62 1436.12 287.938 1433.83 290.246C1431.54 292.554 1430.25 295.667 1430.23 298.916C1430.24 300.021 1430.39 301.12 1430.69 302.186H1698.9Z" fill="#F5F5F7"/>
<path d="M272.236 61.1519C271.67 56.8138 269.806 52.747 266.888 49.4837C263.97 46.2204 260.133 43.9125 255.88 42.8619C254.459 38.4933 252.009 34.5289 248.736 31.3015C245.462 28.0741 241.461 25.6779 237.068 24.3142C232.676 22.9505 228.019 22.659 223.49 23.4642C218.961 24.2695 214.691 26.148 211.04 28.9419C210.84 22.1731 208.339 15.6737 203.948 10.5129C199.556 5.35214 193.537 1.83733 186.879 0.546673C180.221 -0.743982 173.321 0.266391 167.314 3.41159C161.308 6.55678 156.553 11.6495 153.831 17.8519C150.048 14.308 145.337 11.9062 140.244 10.9245C135.151 9.94275 129.884 10.4212 125.052 12.3046C120.22 14.1879 116.021 17.3991 112.941 21.5664C109.861 25.7336 108.026 30.6866 107.648 35.8519C104.358 34.4109 100.805 33.6653 97.212 33.6619C90.679 33.6698 84.39 36.1414 79.6045 40.5819C77.5238 37.7637 74.8072 35.4747 71.675 33.9006C68.5427 32.3265 65.083 31.5116 61.5764 31.5219C57.4482 31.5238 53.4012 32.6664 49.8834 34.8232C46.3655 36.98 43.5142 40.0669 41.6452 43.7419C40.8343 43.6058 40.0137 43.5355 39.1914 43.5319C34.9058 43.5346 30.7967 45.2362 27.7673 48.2627C24.7379 51.2893 23.0361 55.393 23.0361 59.6719C23.0361 60.1719 23.0361 60.6719 23.1062 61.1519H272.236Z" fill="#F5F5F7"/>
</svg>
